<svg version="1.1" xmlns="http://www.w3.org/2000/svg"  xmlns:xlink="http://www.w3.org/1999/xlink" viewBox="0 0 302.67 86.4"><g id="logo"><path d="M39.51,0,24.3,86.4H0L15.21,0ZM6.36,81H19.89l10-56.7H16.35ZM17.22,18.9H30.86L33.33,5.4H19.69C18.7,10.8,18.2,13.5,17.22,18.9Z"/><path d="M62.1,86.4H18.9L32.67,8.1h43.2ZM25.29,81H38.81l9.42-54h5.44L44.26,81H57.69L69.57,13.5H37.17Z"/><path d="M70.47,8.1h43.2L99.9,86.4H56.7ZM75,13.5Q71.36,33.75,67.75,54h19c-1,5.4-1.43,8.1-2.38,13.5H79c.57-3.24.85-4.86,1.42-8.1H66.8c-1.48,8.64-2.23,13-3.71,21.6h32.4q3.57-20.25,7.13-40.5H83.74c1-5.4,1.43-8.1,2.38-13.5h5.35c-.54,3.24-.8,4.86-1.34,8.1h13.53c1.48-8.64,2.23-13,3.71-21.6Z"/><path d="M137.7,86.4H94.5L108.27,8.1h43.2ZM100.89,81h32.4l11.88-67.5h-32.4Zm21.25-13.5h-5.35q3.57-20.25,7.13-40.5h5.35Z"/><path d="M194.4,86.4H132.3L146.07,8.1h62.1ZM138.69,81h13.52q4.71-27,9.41-54H167l-9.45,54h13.52l9.45-54H186q-4.71,27-9.41,54H190l11.88-67.5h-51.3Z"/><path d="M232.2,86.4H189L202.77,8.1H246ZM195.39,81h13.52q4.71-27,9.41-54h5.45l-9.41,54h13.43l11.88-67.5h-32.4Z"/><path d="M266.31,0,251.1,86.4H226.8L242,0ZM233.16,81h13.53l10-56.7H243.15ZM244,18.9h13.65c1-5.4,1.48-8.1,2.47-13.5H246.48C245.49,10.8,245,13.5,244,18.9Z"/><path d="M245.7,86.4,259.47,8.1h43.2L288.9,86.4ZM261.5,27h19l-1,5.4H260.64L252.09,81h32.4l11.88-67.5H264C263,18.9,262.49,21.6,261.5,27Zm10.2,18.9h5.44l-3.8,21.6H268C269.47,58.86,270.21,54.54,271.7,45.9Z"/></g></svg>